<?xml version="1.0" standalone="no"?>
<!DOCTYPE svg PUBLIC "-//W3C//DTD SVG 20010904//EN"
 "http://www.w3.org/TR/2001/REC-SVG-20010904/DTD/svg10.dtd">
<svg version="1.0" xmlns="http://www.w3.org/2000/svg"
 width="1280.000000pt" height="362.000000pt" viewBox="0 0 1280.000000 362.000000"
 preserveAspectRatio="xMidYMid meet">

<g transform="translate(0.000000,362.000000) scale(0.100000,-0.100000)"
fill="#000000" stroke="none">
<path d="M1619 3420 c-364 -38 -700 -199 -959 -459 -141 -142 -221 -254 -309
-432 -402 -810 -60 -1807 751 -2194 62 -29 149 -65 193 -79 457 -149 972 -69
1362 211 85 60 213 171 213 183 0 4 -124 128 -275 275 l-275 267 -43 -39
c-204 -188 -477 -246 -731 -156 -249 88 -440 305 -513 581 -35 132 -37 316 -5
445 71 284 266 504 527 593 107 36 281 45 388 19 123 -30 225 -83 340 -178
l47 -39 118 110 c64 61 189 183 277 272 l160 161 -50 45 c-241 216 -517 352
-809 399 -119 19 -300 26 -407 15z"/>
<path d="M3279 2589 c-431 -424 -784 -774 -784 -779 0 -9 1565 -1550 1574
-1550 4 0 128 118 275 263 l269 262 -534 509 c-294 281 -534 512 -534 516 0 3
240 232 533 509 l534 504 -268 268 c-148 148 -272 269 -275 269 -3 0 -359
-347 -790 -771z"/>
<path d="M5075 3097 l-268 -262 534 -510 c294 -280 534 -512 534 -515 0 -3
-237 -229 -527 -502 -290 -274 -529 -502 -532 -507 -6 -10 518 -526 534 -526
10 0 1575 1525 1575 1536 0 8 -1567 1549 -1576 1549 -4 0 -127 -118 -274 -263z"/>
<path d="M7270 1805 l0 -1515 579 0 c318 0 625 5 682 10 662 65 1165 424 1353
969 68 195 80 278 80 531 0 197 -3 238 -22 330 -67 305 -181 521 -386 726
-264 265 -615 416 -1056 454 -63 5 -366 10 -672 10 l-558 0 0 -1515z m1305
806 c273 -74 460 -256 540 -526 35 -118 45 -319 22 -440 -66 -348 -322 -598
-667 -654 -36 -6 -145 -11 -242 -11 l-178 0 0 831 0 831 223 -5 c186 -3 235
-8 302 -26z"/>
<path d="M10327 3313 c-4 -3 -7 -685 -7 -1515 l0 -1508 1125 0 1125 0 0 340 0
340 -730 0 -730 0 0 255 0 255 710 0 710 0 0 345 0 345 -710 0 -710 0 0 235 0
235 730 0 730 0 0 340 0 340 -1118 0 c-615 0 -1122 -3 -1125 -7z"/>
</g>
</svg>
